<?xml version="1.0" standalone="no"?><!DOCTYPE svg PUBLIC "-//W3C//DTD SVG 1.1//EN" "http://www.w3.org/Graphics/SVG/1.1/DTD/svg11.dtd"><svg t="1699523545356" class="icon" viewBox="0 0 1024 1024" version="1.1" xmlns="http://www.w3.org/2000/svg" p-id="9331" xmlns:xlink="http://www.w3.org/1999/xlink" width="200" height="200"><path d="M499.2 924.1c6.8 0 13.5-0.2 20.3-0.6-12.1 0-33.5 0-40.3 0.1 6.6 0.2 13.3 0.5 20 0.5zM463.6 922.7c-9.4-1.1-20.7-2.4-26.5-2.9 8.7 1.3 17.5 2.2 26.5 2.9zM763.7 568.8l-104.8 165c-8.2 12.9-4.2 30.3 9 38.7 13.2 8.4 30.7 4.7 38.9-8.4l104.8-165c8.2-12.9 4.2-30.3-9-38.7-13.2-8.4-30.7-4.7-38.9 8.4z" p-id="9332" fill="#1296db"></path><path d="M719 771.8c2.6 13.8 0.4 28.5-7.8 41.2l-51.5 81c-15.7 24.7-47 33.1-73.1 21.1 7.8-1.7 15.7-3.7 23.5-5.7-6.8 1.5-16.3 3.9-23.5 5.7-2.4-1.1-4.7-2.3-7-3.8-27.2-17.3-35.5-53-18.5-79.9l51.5-81c8.1-12.7 20.4-21.1 34-24.6l26-41c-33.4-3.2-67.3 11.9-86.2 41.8l-57.8 91c-27.2 42.9-14 100 29.4 127.6 43.5 27.6 100.8 15.2 127.9-27.7l57.9-90.7c19.1-30 18.3-66.9 1.2-95.9l-26 40.9zM912.4 387.4c-43.4-27.6-100.8-15.2-128 27.7l-57.8 91c-19 29.8-18.2 66.7-1.1 95.7l26-40.9c-2.6-13.8-0.2-28.5 7.8-41.2l51.5-81c17.1-26.9 52.9-34.5 80.1-17.3 27.2 17.3 35.5 53 18.5 79.9l-51.6 81c-8 12.7-20.4 21.1-34 24.6l-26 41c33.4 3.1 67.2-12 86.2-41.9l57.8-91c27.2-42.9 14-100-29.4-127.6z" p-id="9333" fill="#1296db"></path><path d="M637.1 782.7c-2.7 0.4-3.7 0.7-6-0.1-2.2-0.8-0.5-1.4-7.2-2.1-0.7-0.1-1.1 0-1.5-0.1l-40.6 64c-4.7 7.4-6.2 16.4-4.2 25.1 2 8.8 7.4 16.4 15.2 21.3 15.3 10.1 37 5.3 46.5-9.7l45.2-71.1c-1.1 0.1-2.4 0.8-3.3 2.2-1.1 1.6-2.5 2-3.7 0.8-1.2-1.3 0.9-0.9-0.2-2-1.2-1.1-3.1-0.1-6.2-0.1-3.2 0-3.9 0.4-6.1-1.1-1.2-0.7-1.2-2-0.9-3.3-3.2-1.2-6.1-2.6-8.7-4.5-0.8 0.6-1.8 0.8-4.4 0.5-3.1-0.4-0.2-1.3 0.7-3.3 0-0.1 0.1-0.2 0.2-0.4-0.9-0.9-1.9-1.8-2.7-2.7-1.1 0.6-2.1 0.7-3.4 0.8-2 0.2-2-2.4-1.8-6 0.2-3.5-0.9-1.2-2.2-1.5-1.3-0.4-0.9-3.5-0.9-6.2 0-2.6-1.1-0.8-3.8-0.5zM806.5 672.3c-3.7 0-7.3-0.1-11-0.5l-1.4-0.1-29 45.6 0.7 1.3c19.6 33.2 21.6 72.8 6.1 106.8 68.2-56.4 118.6-133.3 141.8-221.3l-9.2 14.7c-21.2 33.4-57.9 53.5-98 53.5zM668.7 113.8c0.7 0.4 1.3 1.2 2 1.6 0.3 0.2 0.8 0.5 1.4 0.7-1.6-1.4-3.2-2.9-4.8-3.5 0.6 0.5 1.1 1 1.4 1.2zM649.5 652.1c0.3 0.1 0.4 0.1 0 0z" p-id="9334" fill="#1296db"></path><path d="M493.9 913.1c2.1 0 2.2 0 5.8-0.8-14.5-34-12.7-74.3 8.4-107.6l16.6-26c0-1.6 0.4-3.5 0.5-4.6 0.1-1.9 0.1-2.5-0.1-3.3-0.1-0.7-1.3-1.1-3.4-2.4-2-1.3-0.9-3.3-0.8-5.1 0.2-1.9-1.8-5.1-2.5-6.5-0.9-1.4-1.3-1.6-2.2-2-0.9-0.2-2.2-1.9-2.9-4.1-0.7-2.1 1.8 0.5 2.7 0.6 0.9 0.2 2.4 1.3 3.4 1.8 1.2 0.5 0.9-1.8 0.4-3.3-0.6-1.5-2.5-3.8-3.2-5.4-0.7-1.6-0.5-2.2 0.2-3.4 0.7-1.1 1.1-2.5 2-5.1s0.5-3.5 0.8-5.9c0.4-2.2 0.5-2.9 1.2-2.9 0.8 0 1.6 2.9 2.7 2.4 0.9-0.5-0.2-2.1 1.3-3.1s2.6-0.8 5.7-2.1c2.9-1.3 6.9-4.7 7.5-5.9s2.5 0 3.5 0.6c1.1 0.5 2.9 0.6 4.2 0.1s1.4-1.2 3.1-2.2 3.5 0.7 5.3 0.7c1.8-0.1 0.6-1.2 1.5-2.2 0.9-1.2 6.2-1.6 8-1.6 0.6 0 2.2-1.1 4.2-2.4 3.3-4.9 7.1-9.5 11.1-13.8 0.4-1.9 3.1-3.9 3.1-3.9s1.2-2.7 2.5-2.8c0.6-0.1 0.6 0.1 0.5 0.6 4.9-4.6 10.1-8.7 15.7-12.2 0.5-0.7 1.1-1.3 1.5-2 1.4-2.1 1.5-1.2 3.3-1.3s0.8-1.3 0.9-2.6c0-1.3 1.3-0.1 3.4 0.4h0.5c0.4-0.1 0.6-0.4 0.9-0.6 0.4-0.7 0.5-1.6 1.4-2 0.5-0.2 1.2 0 2 0.4 7.1-3.3 14.5-5.8 22.3-7.7 0.2-0.4 0.5-0.8 0.8-1.2 1.4-1.3 3.1-3.7 4.8-4.5 1.8-0.7 2.1-1.3 3.8-1.9 1.6-0.6 0.8-2.9-0.5-1.4-1.2 1.5-3.7 1.3-6.4 2.9-2.8 1.5-4-0.6-3.7-2.7 0.4-2 0.8-1.9 2.8-2.7s3.2-2.1 8.6-0.9c1.4 0.3 2.1 0.5 2.4 0.6-0.4-0.1-1-0.5-0.3-0.8 1.5-0.8 4-0.9 4-0.9s0.4 2 1.3 1.8c0.9-0.2 1.9 0.7 2.1 1.1 0.2 0.4 4.4 1.2 5.3 1.5 1.1 0.4 3.9 0.2 5.5 0.1s3.1 1.5 3.3 1.5 1.9 0 3.7-0.4 1.2-2.1 2.4-3.7c1.1-1.5 3.2-3.4 4.9-4.9 1.8-1.6 0.8 0.7 0.5 2.1-0.4 1.3-1.4 1.2-3.2 2.9-1.8 1.8-0.1 2.1 0.1 2.2 0.1 0.1 0.6 0.1 1.1 0.4l25.1-39.6-0.7-1.3c-22.4-37.9-21.7-84.3 1.6-121.2l57.8-91c21.3-33.6 57.9-53.6 98.1-53.6 15.1 0 29.8 3.2 43.7 8.7-43.7-129.9-147.5-232-278.5-273.2 10.7 4 35 14.8 39 16.3 4.7 1.6 33.6 17.2 40.5 21.2s6.9 5.5 9.8 7.2c2.8 1.5 11.1 5.3 13.4 8.6 2.4 3.3 2.8 4 5.4 7.1 2.7 3.2 2.4 1.3 5.9 3.2 3.4 1.8 0.9 3.8 2.6 6.8 1.5 2.9 3.5 5.7 5.4 8.2 2 2.6 2.8 4.4 2 4.2-0.8-0.1-6-7.7-7.7-10-1.5-2.4-19-21.3-20.4-22.1s-1.3 0.8-2.5 2.6c-1.1 1.6-2.7-0.5-3.5-1.2-0.8-0.7-3.4-3.3-4.2-3.3s-1.6 3.3-2.2 4c-0.6 0.7-3.3-2.1-4.8-4.7-1.5-2.5-3.8-3.2-5.2-3.1-1.4 0-2.5 0.1-3.7-1.3s-2-2.7-2.5-2.7c-0.4 0-3.8-0.8-5.4-2.1-1.5-1.3-0.9-3.3-1.4-4.4-0.4-1.2-1.4-1.6-3.8-1.8-2.4-0.1-4.6 2.9-5.9 2.6-1.3-0.5-2.6-2.6-4-2.6-0.7 0-1.4-0.2-2-0.4 1.3 1.1 2.5 2.2 3.7 2.7 3.1 1.3 4.4 2.9 1.8 2.9-2.6 0-11.2-3.4-10.4 0 0.8 3.5 4.7 4.4 9.5 7.8 4.7 3.5 6 3.5 4.7 6.1-1.3 2.6-0.4 11.8 0.8 13 1.3 1.3-6-3.1-6-0.4 0 2.6-3.9 4.8-3.9 4.8s2.2 3.1 3.1 4.8c0.8 1.8-2.6 5.7 0.8 5.7s6.5 2.1 7.3 3.9 4.4 0 4.4 3.1 1.6 6.1 3.4 6.9c1.8 0.9 0.5 5.7-0.8 5.7s3.1 2.1 3.1 4.4c0 2.2-1.3 3.1-1.3 5.3 0 2.1 1.8 11.3 1.3 13.5-1.8 3.5-2.6 3.5-5.7-3.1-3.1-6.5-13-15.2-18.1-20.8-5.1-5.6-3.9-10-6.5-12.6-2.6-2.6 0.4-4.8 0.4-4.8s0.5-5.7-0.5-8.2c-0.8-2.6 1.3-5.7-1.3-8.2-2.6-2.6-6.5-6.9-6-4.8s3.4 8.7 1.3 9.5c-2.1 0.9-4.7-4.7-8.1-3.9-3.4 0.8-4.7 3.9-3.4 7.4 1.3 3.4 4.7 3.9 4.7 5.2 0 1.3-6 4.4-8.6 3.9-2.6-0.4 0-3.9-7.8-2.6s-2.1 2.2-6 2.6c-3.9 0.5-15.9 1.8-16.4 4.4-0.4 2.6-3.1 7.4-4.7 10-1.8 2.6-4.4 8.7-6.4 12.1-2.2 3.5 2.6 1.3 5.2 1.3s1.3-5.7 2.9-3.4c1.8 2.1 0.8 3.4 2.6 5.2 1.8 1.8 2.1-0.5 3.9-0.9 1.8-0.5 10.4 0.4 14.7 8.6v-6.5c0-3.9 4.8 1.3 4.8 1.3s4.4 9.1 11.7 15.2c7.4 6.1 10.5 7.8 6.9 7.8-3.4 0-8.2-0.5-4.2 6.1 3.9 6.5 9.5 7.4 7.8 8.7-1.6 1.3-2.9 0-3.9 1.3-0.8 1.3-1.3 5.2-2.9 1.3-1.8-3.9-6.6-12.1-7.8-14.4-1.3-2.2-5.7-20-9.2-17.3-3.4 2.6 1.8 10.5 1.8 11.8s4.4 17-7.3 34.9c-11.5 17.9-15.4 11-16.4 9.5-0.9-1.3-3.9 1.4-4.2 3.1-0.5 1.8-3.4 2.6-3.9 3.9-0.4 1.3-0.4 5.2-1.2 8.2-0.9 3.1-8.2 5.2-8.1 7.9 0 2.6 15.5 10 15.5 30.4 0 1.3-5.2 1.3-5.2 1.3s-1.8 3.1-5.7 3.1-7.3 1.8-7.3 1.8 2.1-11.8 0-13.9c-2.1-2.2-3.1-2.6-1.8-4.4s0.8-4.8-2.6-4.8c-3.5 0-8.2-2.1-8.2-2.1s2.9-5.3 1.6-8.2c-1.3-3.1-5.8-6.9-17.2 2.7-2.6 2.2-5.5 3.5-5.2 0.9 0.5-2.6 0-3.1 0.5-4.8 0.5-1.8 3.4-6.1 3.4-6.1s-2.2-5.7-9.4 2.6c-7.3 8.2-8.2 7.4-11.2 7.4s-4.4 4.8-2.1 5.7c2.2 0.8 9.1 1.8 9.1 4.7 0 3.1 1.8 2.2 4.4 0s15.9-1.3 15.9 0.8c0 2.2-4.2 3.9-6.8 4.8-2.6 0.8-9.9 8.7-10.4 10.5s3.1 3.1 3.9 4.7c0.9 1.8 6.9 5.7 6 12.6 0 0 6.1 1.3 6.1 3.5 0 2.1 0.9 5.2 0.5 6.5-0.5 1.3-5.7 5.7-5.7 5.7 8.7 0.4 9.4 4.4 6.9 11.9-1.3 4.1-5.7 14.1-11.2 13.9 0.1 2.5 0.2 5.2-0.4 7.5-0.9 4.1-0.8 3.5-5.7 5.1 0.2 2-0.7 2.2-1.9 3.5-0.7 0.8-2.4 0.2-3.3 1.2-0.6 0.6 0.1 2.2-0.4 2.6-2.2 2-7.5 2.8-7.4 6.9-4.8 2.6-11.7 2.1-15.5 6.1l-5.7-2.1c2.8 8.5-17.5 5.3-20.5 12-0.5 0.9-0.5 2.2 0 3.7 0.8 2.7 2.6 8.2-1.4 12.7-4 4.4-12.7 7.5-14 0.2s7.3-9.4 9.9-9.8c2.6-0.4 3.1-0.9 3.1-0.9s-4.1-1.2-4.2-3.1c-0.1-1.9 0.7-2.9-0.2-4.1-0.9-1.3-3.1-2.1-3.8-2.1-0.7 0-1.9-0.5-3.3-1.4-1.4-0.9-3.8 1.9-5.8 2.8-2 0.9-3.3 2-4.7 2.6-1.3 0.6-1.1 3.5-4.7 5.4-3.5 1.9-5.3 6-3.8 9.3 1.6 3.4 4.4 4.1 5.3 7.7 0.9 3.5 3.3 7.2 7.7 10.2 4.4 3.1 8.5 10.1 8.8 12.4 0.4 2.2 3.9 12.5 2.4 17.8s-1.4 9.4-8 12.6c-6.6 3.2-9.7 2.5-9.7 2.5s-2 4.1-2.6 6.4c-0.7 2.2-5.1 2.7-5.9 3.8-9.5 11.3-3.7-1.2-6.7-6.2-1.1-1.6-6.5-4-8.2-5.3-1.8-1.3-4.2-2.9-5.5-4.6-1.8-2.5-1.3-5.8-4.7-8.2-2.6-1.9-8-1.3-9.8-3.3-1.3-1.5 0.8-8.6-4.8-5.7-3.5 1.9-1.9 13.4-4.6 17.2-3.8 5.4-4.8 11.5-2 13.2 2.8 1.6 4.9 0.4 4.8 3.5-0.1 3.3 2.5 5.2 2.7 5.9 0.2 0.8-1.4 4.7 0.5 6.8 1.9 2.1 7.7 2.8 8.8 4.2 1.3 1.4 12 10 12.1 14 0.2 8.4 0.9 12.6 4.9 19.7 1.8 3.1 2.4 6.9 4 10.2-11.3 1.1-25.8-15.3-29.9-24.4-2.8-6.2-1.1-12-3.4-17.1-2-4.5-7.4-15.4-13.2-13.5-0.9-2.9 0.2-8.7 0.6-11.8 0-0.2 0.7-4 0.7-3.7-0.1-1.9 2.1-2.6-1.1-3.7 7.1-2.5 3.5-8.7 3.3-14.8-0.2-5.2-2.7-5.5-4.6-10-1.9-4.7 0.1-9.9-0.1-14.8-0.1-1.9-0.1-4.1-1.2-5.8-0.2-0.2-4.1-3.9-4.1-3.1-0.4 3.5-10.2 9-13.4 9.2-9.7 0.5-2.9-10.8-2.9-16.5-0.1-4.7-1.8-3.8-3.7-6.8-1.4-2.5-0.6-5.4-2-7.8-1.5-2.6-5.1-3.4-6.7-6.2-2.7-4.8 0.7-13-5.2-16.1-0.1 1.2-1.2 3.1-1.4 4-0.5-1.2-1.6-2.1-2.1-3.1-0.8 5.5-3.1 5.4-8.8 6.6-2.9 0.6-7.5 1.5-8.8-2.5-1.4 1.5-3.5 1.1-4.6 1.9-2.4 1.9-1.1 0.7-2.2 4-1.2 3.2-2.4 5.5-5.3 7.3-2.8 1.8-8.2 1.3-9.9 4.6-1.3 2.5-13.9 13-16.6 13.5s-1.3 2-1.4 3.7c-0.2 1.6-1.6 2.5-3.7 2.5-2 0-4.4-1.3-4.9 1.1-0.6 2.4-0.2 2.7-2.8 2.6-2.6-0.1-4.6 0.7-4.6 3.2s0.5 15.4-0.2 17.4c-0.7 1.9-1.4 4.5-3.3 6.1-1.9 1.8-2.6 4-2.5 6.6 0.2 2.5 1.8 7.1-1.1 7.1-2.8 0-4 1.3-3.9 3.3 0.1 2 0.5 3.3 1.4 4.4 0.8 1.1-2.5-0.8-4.4-0.1-1.9 0.7-1.9 4-4.9 4.6-2.9 0.6-3.2 4-6.5-0.8s-4.4-7.5-4.4-14.1c0-6.5 2-6.2-0.9-10.2-2.9-4-4.1-7.2-4-11.7 0.1-4.5 1.4-8.2-0.4-11.4s-5.3-7.5-4.2-11.3c1.1-3.9 2.2-20.6 1.9-24.4-0.5-3.9-1.3-4.9-0.2-8.2 0.9-3.3 1.1-3.3 1.3-5.8 0.2-2.5 0.8-3.9 1.4-5.1 0.7-1.2 0.8-3.2-0.6-3.3-1.4-0.1-2.2 2.8-2.1 3.8 0.2 1.1 2.7 2.5-1.2 3.9-3.9 1.4-6.9 3.5-9.7 0.4-2.8-3.1-6.8-8.6-5.2-11.3 1.6-2.7 3.4-1.9 5.2-1.8 1.6 0.1 3.1-1.2 2.1-2-0.9-0.9-2.5 1.5-4.6-1.1-2.1-2.7-3.8-5.5-5.7-6.6-1.9-0.9-1.4-1.4-1.2-4.7 0.1-3.3 2.1-2.8-0.5-4.5-2.6-1.7-2.4-1.4-0.9-2.9 1.3-1.4-0.6-2.5-2.6-2.5s-8.6 0.8-9.9-1.1c-1.3-1.8-0.5 0-2.6 0.5-2.2 0.5-1.9 0.9-3.1 0.1-1.3-0.9-1.9-0.1-3.8-0.5-1.9-0.2-2.1-0.5-4.9-2.5-2.8-2-2.6-1.9-6.6-3.5-4-1.6-5.2 0.5-5.4-3.7-0.2-4.1 2.2-5.8 1.3-7.7-1.1-1.9-4.8-2-6-0.9-1.2 1.1-6.4 3.7-6.9-0.1-0.6-3.7-1.2-3.9-2.1-7.7-1.1-3.7-1.3-5.7-1.9-6.4-0.7-0.7-0.6-0.2 0.6-4.5 1.2-4.2 3.8-5.9 1.3-8.2-2.6-2.2-5.8-4-6.5-2.2-0.8 1.9-1.5 7.1-2.7 10.5-1.2 3.4-2.5 2.7-1.4 6.7s1.3 9.7 0.6 12.7c-0.7 3.1-2.5 4.9-0.8 3.7 1.6-1.3 2.9-6.6 3.7-3.9 0.7 2.8 0.4 4-0.7 6.4-0.9 2.2-3.2 7.9-1.5 8 1.6 0.1 2.2-0.2 3.9 0.7 1.6 0.9 2.1 2.5 3.5 1.6 1.3-0.8 5.9-7.3 9.2-10 3.2-2.8 4.1-3.7 4.1-0.1 0 3.5-3.1 10-2.8 12.7 0.2 2.8 3.9 4.1 5.5 6 1.6 2 3.8 6.7 2.6 10.2-1.3 3.7-8.8 9.5-9.8 11.8-1.1 2.1-2.2-1.1-3.1 1.3-0.7 2.4-0.7 3.5-1.6 5.7-0.8 2.2-1.6 5.1-3.4 5.1s-3.8-0.5-4.7 2c-0.8 2.6-1.8 4.1-3.8 4.2-2 0.1-2.9-0.5-4 1.8-0.9 2.2-2.5 2.5-4.9 2.2-2.6-0.1-6.8 0.5-7.5 4.8-0.8 4.2-1.8 3.4-4.5 3.7-2.7 0.1-7.1-1.9-8.6 0.9-1.4 2.8-2.8 4.6-4.2 4.8-1.4 0.2-5.9-0.2-7.9 0.2s-1.9 2-3.3 2.7c-1.4 0.7-4.8 1.4-5.1 0.9-0.2-0.4-1.2-9.3-0.6-13 0.6-3.5 1.4-8 3.3-13.3 1.9-5.4 1.9-18.1 2.1-22.4 0.4-4.2-0.8-7.7-0.1-14.8 0.7-7.2 0.7-7.7 3.2-12.6 2.5-4.8 2.6-7.9 2.6-15s0.6-7.5 2.4-12.6c1.8-5.1 5.9-14.8 4.2-16-1.5-1.3-2.4 0.8-3.8 4s-4.6 18.1-5.5 20.7c-1.1 2.6-2.1 3.3-3.3 6.9-1.3 3.7-0.2 12-1.4 15.8-1.2 3.7-6 12.7-6 17.3s1.1 14.7-0.5 19.3c-1.5 4.6-3.9 4-2.1 8.7 1.8 4.8 1.5 8.8 2.9 15.1 1.4 6.2 1.8 11.7 0.7 14.4-1.1 2.7-1.4 4.5-1.3 5.5 0.1 1.2 1.3 4 1.4 4.5 0.1 0.5-0.6 1.1-0.2 2.4 0.5 1.3 0.5 2 2.5 0.8s2.7-1.4 3.4-0.4c0.7 1.2-0.7 1.9 3.7 0.1 4.4-1.6 8.6-0.1 9.4-0.2 0.8-0.1 2.8-2.7 4.2-2.7 1.3 0 3.5 1.2 2.8 2.8-0.6 1.6-2.5 0.5-2.6 2.1-0.2 1.6 0.2 8.4-1.1 8.8-1.3 0.6-1.3 2-1.3 3.5 0 1.4-3.2 7.9-4.2 10.6-1.2 2.7-2.7 5.3-3.4 8.8-0.8 3.7-5.2 14-5.9 16-0.7 1.9-4.7 9.2-9.8 14.4-5.1 5.2-8.6 10.4-9.4 15.5s-0.7 8.1-3.2 10.4-2 9-2 10.6c0 1.5 0.6 6.8 0.8 8.2 0.2 1.4-0.1 1.5-0.7 3.7-0.7 2.1 1.2 7.5 2.4 9.4 1.2 1.9 1.3 1.4 1.2 6.2-0.2 4.9 0.6 9.9 2.4 13.3 1.8 3.4 4 10.2 3.7 13.5-0.4 3.4 0.5 7.3 1.4 11.1 1.1 3.8 3.8 7.2 4.4 12.2 0.6 5.1 2 11.3 0.1 13.5-1.9 2.4-3.2 13.5-0.2 15.9 2.9 2.4 9.9 19.4 10.7 25.2s2.5 13.1 3.7 15.2c1.3 2.1 8.1 9.2 15.5 27.8 0 0-37.2-53.8-55.1-124.7S75 448.7 85.6 401.2c10.7-47.5 35-105.9 53.6-130.6 5.5-7.4 1.3 3.4 0.9 6.9-0.5 3.5-3.4 10.5 0.5 9.2 3.9-1.3 4.2 0.8 4.2 4.4 0 3.5 18.1-20.5 18.1-20.5s4.2-6.9 6.4-8.7c2.1-1.8-1.3-3.1-5.2-0.4-3.9 2.6 0-6.9 0-6.9s-4.7 6.1-4.2 1.8c0.5-4.4 1.8-7.9 1.8-7.9s5.2-6.5 5.2-8.2c0-1.8 4.7-1.8 6.8-9.2 2.1-7.4 0-4.4-2.1 1.3s-7.8 6.9-7.8 6.9-7.3 10.8-4.2 4.8c2.9-6.1 4.2-9.5 2.1-9.5s51.1-58.9 77.8-79c26.6-20 58.1-44.5 102-54.6l0.8-3.4s21.1-1.4 20.7 0.8c-0.5 2.1-3.9 4.7-3.9 4.7s-9.1 8.7-9.9 10-6.9 6.1-11.2 5.3c-4.4-0.9-3.4-3.1-3.4-3.1s-13.3 8.2-11.7 8.2c1.8 0 5.7-3.1 5.7-1.6 0 1.3-0.8 2.6 5.2-0.5s11.2-1.3 11.2-1.3 7.8-6.9 10.7-6.9c3.1 0 4.8 3.4 0.5 3.9-4.4 0.4-5.7 3.1-0.5 2.1 5.2-0.9 10.4-3.1 10.4-3.1s2.6-2.6 2.6 0 3.4 1.8 4.7 1.8c1.3 0 7.8 3.1 9.4 1.3 1.8-1.8 3.4-3.9 2.1-6.1-1.3-2.1-3.4-4.7 1.3-7.4 4.7-2.6 12-2.2 12-2.2s0.8-2.6 4.4-2.6c3.4 0 9.4-3.4 9.4-3.4s22.4-2.7 22-0.1c-0.5 2.6-35.3 4.8-40.9 9.7-5.7 4.8-6.5 8.2-3.9 10.4 2.6 2.2 5.2 4.8 5.7 6.1s2.6-2.1 2.6-3.9c0-1.8 2.6-3.1 4.2-3.4 1.8-0.5 1.3-3.9 3.1-4 1.8 0 7.8-2.1 13.8-4.4s4.7 0.9 3.4 3.1c-1.3 2.1-6 2.6-7.8 5.2-1.8 2.6-6.8 5.7-8.1 8.7-1.3 2.9-13.3 6.9-15.1 6.9-1.6 0 0 5.9 14.7-3.1 4.2-2.6 4-6.4 7.3-2.2 1.8 2.1 4.4-1.3-1.8-3.5 0 0 2.6-2.2 3.9-2.6 1.3-0.5 2.9-4.8 4.4-5.7 1.3-0.8 6-5.7 6.8-4.4s6.5 1.3 8.1 3.4c0 0 2.6-2.6 4.4-3.5 1.8-0.9 9.9-1.8 11.7-0.9 1.8 0.9 1.3-2.2 3.9-3.1 2.6-0.8 23.7-3.5 25-3.1 1.3 0.5 2.9-1.8 2.9-1.8s3.5-4.4 1.3-5.3c-2.1-0.9-8.6-4.8-6.9-6 1.8-1.3 6.5-1.8 6.8-0.5 0.5 1.3 7.4 4.4 7.4 4.4s6.5 3.9 3.1 4.8c-3.4 0.8-1.3 3.1 1.8 3.1s12.5 2.9 9.9 5.2c-2.6 2.1-11.7 5.2-11.7 5.2s10.7-2.1 11.7-0.5c0.9 1.8 16.4 2.6 18.5 2.1s3.4-3.4 5.5-3.4 11.2 0.4 9.9 3.4 4.8 4.4 4.8 4.4 0 3.1 2.6 2.1c2.5-0.9 2.1-3.5 4.7-3.5s9.1 1.8 9.9 0c0.8-1.8 1.3-3.9-0.5-5.3-1.8-1.2-1.8-4.4-3.4-5.2-1.8-0.8-5.2 0.5-6.5 0s-4.7-2.2-4.7-2.2-2.7-4.8 0-4.8c2.6 0 22.8 1.6 23.7 3.4 0.8 1.8-5.2 1.8-6.9 1.8-1.8 0-3.1 3.5-0.8 3.9 2.1 0.5 5.5 3.9 5.5 3.9h14.7c2.6 0 2.6 2.2 5.5 2.1 3.1 0 8.2-1.3 13.8-0.9 5.7 0.5 6.9 2.6 10.8 2.6s10.4-2.2 10.4-2.2l4.7 0.8s-5.7-2.6-2.1-3.5c3.4-0.8 13-9.5 33.2 1.6 3.9 2.1 4.4-0.9 7.3-0.5 0.4 0 0.7 0.2 1.1 0.3-0.8-0.8-1.6-1.7-1.6-1.7s0.9 0.8 3.3 0.4c2.2-0.6-2-1.1-2.8-1.4-0.8-0.4-5.8-1.5-8.4-1.3-2.5 0.4-4.7-0.1-6.7-2.7s-2.9-3.8-7.7-6.1c-4.6-2.2-6.7-2.1-7.2-2.1-0.4 0-1.4-2.9-0.1-2.8 1.3 0.1 1.6-2.6 2-3.4 0.2-0.8-4.5-3.5-5.3-3.7-0.8-0.1-11-3.3-12.1-4.5-0.8-0.9 0.5-0.8 1.3-0.7C582.7 70.4 540.6 63.9 497 64c-237.5 0.7-429.6 193.7-429 431.2 0.6 208.3 149.1 381.6 345.8 420.7-6.9-1.8-16.8-4.4-17.9-4.4-1.4 0-20.6-6.2-29-9.1-8.4-2.8-9.8-3.1-11.1-3.3-1.4-0.2-4.5-1.8-5.2-2.4-3.5-2.8 4-1.2 11.1 1.2 6.9 2.2 7.1 2.9 11.1 4.2 4 1.4 6.9 1.4 12.7 2.6 5.8 1.2 2.7 0.9 6.6 2.2 4 1.4 3.9 0.1 8 2.4 4.1 2.4 5.5 1.3 7.9 2.5 2.4 1.2 7.2 1.2 8.1 0.8 1.1-0.4 1.3-2.5 1.5-2.5s3.5 0.8 5.7 1.4c2.2 0.6 4.7-0.1 5.7-1.6 0.9-1.5 6.1-0.7 8 0.2 1.9 0.9 9.7 1.8 16 1.6 6.4 0 4.5 1.4 8.4 0.4 4-1.1 5.9-1.9 9.8-0.6 3.9 1.3 0.2 1.2 8.4 1.1 8.1 0 11.7 0.5 14.3 0.5z m157-653.5c0.7-1.5-0.2-1.8-0.2-2.8 0-0.9 1.4 0.4 3.7-0.5 2.4-0.8-0.2-4.2-1.3-6.6-1.2-2.4-2-3.9-1.1-6.8 1.1-3.1 4.2 2.5 8.4 4.8 4.1 2.4 2.8 1.5 4.1 2s3.9 0 4.6-0.4c0.7-0.4 0.1-1.2 0.9-1.9s2.1 0.4 2.7 0.4 1.5-1.4 3.1-2.6c1.6-1.1 1.6-3.2 2-4.5 0.4-1.3 0.9-1.5 2.2-1.5 1.2 0 2.4-0.5 2.8-1.3 0.5-0.9 1.1-2.6 2-4 1.5-2.2 1.6 0.4 1.6 1.5 0.1 0.9-0.1 2.3-1.4 3.7-1.3 1.5-2.9 1.4-3.7 1.8-0.8 0.4-1.3 1.5-2 3.9-0.7 2.2-2.4 1.8-3.2 2.5-0.8 0.8-2.9 2-2.5 3.1 0.5 1.2 0.8 2.6 0.9 4.6s-2.1 1.4-4.6 3.2-1.4 2.1-1.4 3.7-0.6 2.1-1.1 1.8c-0.5-0.3-2.2-0.9-5.2-0.9-3.1-0.1-4.1-0.1-6.2-0.1-2.1 0-0.7 1.2 0.2 2.4 1.1 1.2 1.1 1.2 1.1 2.9 0 1.9-0.2 0.9-1.5 0.8-1.4-0.1-0.1 0.5-2.4 0-2.2-0.5-0.5-2.1-1.1-3.4-0.5-1.2-2.7-1.5-3.4-3.2-0.7-1.4 1.3-1.1 2-2.6zM612.6 327c0.2-2.1 1.3-1.4 3.5-2.5 0.4-0.1 0.5-0.4 0.7-0.5-0.1-1.9 0.6-3.9 2.8-5.2 0.8-0.6 1.8-1.1 2.6-1.5 0.2-0.1 0.5-0.1 0.7-0.2 1.2-0.9 2.4-2.2 2.6-2.9 0.2-1.1 0.4-2.4 2.6-2.6 2.2-0.2 6.4 0 7.4-0.2 1.2-0.4 0.4-1.5 1.3-1.6 0.8-0.1 1.9-0.5 3.3-1.6s0.7 0 1.8 2.1 1.9-1.1 3.2-2.8c1.4-1.8 0.4-5.8 0.2-7.8-0.1-2-0.2-2.7 2.1-3.4 2.4-0.7 1.2 2 2.4 3.7 1.1 1.6 1.8-0.5 2.2-0.7s2.4-1.4 2.8-2.1-0.2-2.5-0.7-3.2c-0.5-0.6-1.9-1.1-2.4-2.1s0.7-2.2 2.6-0.9c1.6 1.4 0.6 3.1 2.4 2.4 1.6-0.6 1.5-3.5 1.4-7.3-0.1-3.7-0.8-4-1.6-5.9-0.7-1.9-1.6-4.1-1.6-7.1 0-2.8 0.7-3.4 0.7-3.4s0.6 0.6 1.4 0.6c0.7 0 0.9-1.4 1.4-3.2 0.5-1.8 0.6 0.9 1.9 2.6 1.2 1.6 7.1 9.4 9 12 2 2.6-0.7 2.6-1.1 2.9-0.4 0.2-0.5 1.4-0.2 1.8 0.2 0.4 1.2 0.7 0 1.5-1.3 0.7-1.4 0.1-1.5 1.5-0.1 1.4 0.1 1.9 2 3.4s0.6 2.7 0.9 5.1c0.4 2.7 3.2 7.9 2.7 10.2-0.4 1.6-3.7 3.7-5 5.1-0.7-1.6-0.4-3.7-0.5-5.5 0 0.1-0.1 0.2-0.2 0.4-1.2 2-1.9 4.8-3.9 6.5-0.5-0.8-1.8-1.4-2.2-2.2 0.5 5.2-6.4 4-9.1 1.8 3.8 12.6-11.3 12.6-8.1 2.9-3.3-1.5-8.7-0.7-10.7 2.5 6.2-1.6 13.1 0 6.5 5.9-4.1 3.7-8.7 5.1-9.3 1.3-0.4 0.4-0.7 0.7-1.2 0.9-0.8 0.4-1.5 0.8-2.4 1.3 0.4 1.5 0.2 3.4-0.2 6.8-0.6 3.9 1.2 15.4-5.4 13.3 0.6 0.1 4.2-4 4.1-4.8-0.4-2.5-3.9-1.2-5.8-1.9-1.5-0.7-0.6-4.7-0.6-6.5s0.2-1.5 1.8-1.6c1.5-0.1 0.2-1.2-2-3.5-2.2-2.4-0.6 0.9-0.6 3.4s-2 0.5-2.4-1.1c-0.4-1.5-0.8-2.1-1.8-2.8-0.9-0.7-0.7-1.2-0.5-3.3z" p-id="9335" fill="#1296db"></path><path d="M815.5 539.6c10.7 6.8 18.3 17.1 21.9 29.1l51.2-80.7c9.8-15.5 4.9-36.3-11-46.4-5.3-3.4-11.7-5.3-18.3-5.3-11.5 0-22 5.7-28.1 15.2L780 531.9c2.4-0.4 4.8-0.5 7.2-0.5 10 0 19.8 2.8 28.3 8.2z" p-id="9336" fill="#1296db"></path></svg>